<svg xmlns="http://www.w3.org/2000/svg" width="318.96" height="400" viewBox="0 0 318.95999 400"><path d="M318.66 169.71c-.023-.082-.053-.165-.088-.243l-2.075-4.836-14.81-37.693-1.08-.25c-4.88-1.138-9.832-1.688-15.138-1.688-5.33 0-10.905.545-17.454 1.716l-10.663-11.12c3.59-7.356 8.602-20.78 9.24-29.524l.075-1.052-36.2-31.447c-2.055-1.882-4.603-2.892-7.4-2.892-4.964 0-9.5 3.275-10.784 7.785-.688 2.415-1.252 8.428 7.135 14.43-4.064 3.602-9.332 6.696-15.62 9.084-.857.32-1.613.483-2.25.483-.762 0-1.635-.19-2.335-1.608-2.938-5.955 1.233-22.02 3.137-24.504l.747-.97-2.547-6.05-.553-.082 5.104-31.287.34-.584 3.74-4.864.91-9.335-7.726-.74-.427 4.962-3.54-.385.468-4.915-3.48-.31-3.48-.36-.5 4.913-3.548-.31.5-4.924-7.68-.747-.908 9.254 2.04 5.382.227.935-.536 5.96-11.207-.792.398-6.1 3.553-5.67V0h-7.724v4.964l-3.536-.024V0h-7.044v4.94l-3.54.024V0h-7.72v9.333l3.552 5.67.397 6.1-11.21.792-.535-5.947.24-.977 2.025-5.353-.902-9.254-7.685.746.5 4.922-3.535.31-.47-4.91-3.514.357-3.48.31.46 4.915-3.538.384-.43-4.963-7.72.74.905 9.335 3.477 4.52.616.98 5.09 31.236-.553.08-2.546 6.05.746.973c1.904 2.483 6.075 18.547 3.138 24.505-.697 1.417-1.57 1.608-2.332 1.608-.633 0-1.39-.163-2.24-.482-6.28-2.388-11.54-5.483-15.596-9.084 8.38-6.007 7.81-12.023 7.122-14.436-1.286-4.508-5.815-7.78-10.77-7.78-2.878 0-5.49 1.07-7.576 3.057L52.29 85.02l.08 1.053c.642 8.748 5.654 22.168 9.24 29.523l-10.66 11.12C44.395 125.546 38.82 125 33.493 125c-5.303 0-10.255.55-15.137 1.688l-1.08.25L2.5 164.55l-2.057 4.77c-.015.036-.03.07-.042.105l-.033.09c-.017.046-.033.096-.047.144-.1.34-.176.68-.228 1.023L.046 171c-.216 1.937.33 3.883 1.598 5.6 2.235 3.027 6.49 4.983 10.84 4.984h.003c6.806 0 12.206-4.34 14.818-11.744 1.074 1.03 2.097 2.185 3.057 3.46 9.444 12.544 11.235 33.408 4.795 55.817-4.424 13.987-13.393 29.926-29.08 51.675l-.966 1.34 1.07 1.26c26.77 31.557 52.653 48.94 72.886 48.94 6.328 0 11.872-1.732 16.304-5.053.953 22.267 24.9 49.922 63.034 72.103l1.06.617 1.06-.617c38.152-22.192 62.112-49.848 63.07-72.104 4.43 3.32 9.978 5.05 16.307 5.05 20.232 0 46.116-17.38 72.887-48.938l1.066-1.26-.965-1.34c-15.683-21.737-24.65-37.676-29.08-51.675-6.44-22.41-4.65-43.273 4.797-55.818.958-1.275 1.982-2.432 3.055-3.46 2.612 7.405 8.012 11.744 14.82 11.744 4.35 0 8.607-1.956 10.84-4.983 1.55-2.097 2.024-4.54 1.34-6.89" fill="#142d44"/><path d="M208.54 4.396l-4.935-.472-.428 4.98-6.328-.69.465-4.886-2.092-.187-2.102-.215-.5 4.89-6.323-.554.503-4.936-4.9-.475-.683 6.943 26.622 2.778.7-7.174M192.855 33.66c-.348-.425-.84-.688-1.387-.737-.568-.07-1.117.093-1.56.453-.447.36-.727.87-.793 1.435l-1.338 12.818c1.43.163 2.838.332 4.21.504l1.318-12.9c.067-.577-.094-1.132-.45-1.57M157.34 31.616l-.03 13.953c.726-.02 1.44-.037 2.13-.046h.056c.672.01 1.36.025 2.065.045V31.615c0-1.15-.953-2.088-2.127-2.088-1.153 0-2.093.937-2.093 2.088M172.82 1.357h-4.935v4.976l-6.324-.045v-4.93h-4.253v4.93l-6.33.045V1.357h-4.932V8.4h26.776V1.356M132.475 47.472c1.897-.212 3.826-.415 5.762-.603l-2.742-30.553-20.174 2.304 4.958 30.392c1.647-.236 3.394-.473 5.213-.705l-1.32-12.935c-.11-.932.158-1.855.755-2.588.588-.724 1.42-1.167 2.342-1.25 1.89-.218 3.644 1.175 3.87 3.115zm-12.893-22.97l-.548-4.822 5.25-.533.548 4.82zm7.683-.82l-.507-4.785 5.255-.58.502 4.826-5.25.54M137.645 8.81l-.678-6.96-4.907.474.505 4.937-6.324.556-.467-4.892-2.125.217-2.096.188.46 4.887-6.32.688-.434-4.98-4.93.473.692 7.15 26.625-2.735" fill="#8f7b4f" fill-rule="evenodd"/><path d="M127.41 32.92c-.562.05-1.054.315-1.403.744-.356.44-.517.992-.45 1.556l1.317 12.912c1.374-.172 2.783-.34 4.215-.504L129.75 34.8c-.136-1.165-1.186-2.008-2.34-1.88M12.454 177.33c2.527 0 8.515-.995 11.167-9.915.044-.147.07-.294.08-.443-2.93-1.885-6.068-2.9-9.173-2.9-2.946 0-5.77.876-8.397 2.603l-1.75 4.06c-.046.104-.084.21-.11.32-.232 1.018.015 2.026.737 3.004 1.443 1.956 4.435 3.27 7.447 3.27M314.632 171.056c-.025-.11-.065-.217-.11-.32l-1.75-4.06c-2.63-1.728-5.452-2.604-8.4-2.604-3.105 0-6.243 1.017-9.172 2.9.012.15.037.296.08.44 2.65 8.92 8.64 9.917 11.168 9.917 3.012 0 6.004-1.315 7.447-3.27.72-.98.968-1.988.737-3.004M102.576 59.58c-.767-2.69-3.654-4.72-6.715-4.72-1.54 0-3.69.51-5.49 2.81.784 4.358 2.876 8.467 6.114 12.158 4.814-3.276 7.026-6.97 6.092-10.247M222.415 69.827c3.24-3.69 5.332-7.8 6.116-12.158-1.8-2.3-3.95-2.807-5.497-2.807-3.065 0-5.957 2.03-6.725 4.72-.933 3.277 1.287 6.97 6.107 10.244M153.64 21.072h3.86V17.64h-3.86v3.432M161.364 21.072h3.86V17.64h-3.86v3.432" fill="#8f7b4f" fill-rule="evenodd"/><path d="M151.613 45.816c1.476-.083 2.915-.15 4.302-.2l.03-14c0-1.92 1.566-3.48 3.488-3.48 1.942 0 3.523 1.56 3.523 3.48v13.996c1.384.052 2.823.12 4.3.2l1.98-30.37H149.63zm9.036-28.89h5.287v4.862h-5.288zm-7.726 0h5.292v4.862h-5.292v-4.86M119.828 20.32l.385 3.4 3.827-.39-.387-3.402-3.825.39M127.545 19.53l.356 3.37 3.83-.395-.353-3.397-3.832.423M203.545 18.623l-20.177-2.307-2.74 30.553c1.936.187 3.865.39 5.764.6l1.34-12.813c.108-.937.568-1.774 1.3-2.364.735-.598 1.653-.865 2.58-.757.907.08 1.737.524 2.324 1.247.596.733.865 1.656.756 2.598l-1.32 12.927c1.82.233 3.568.47 5.217.706zm-11.944 5.06l-5.248-.54.503-4.824 5.25.577zm2.436.284l.54-4.82 5.256.534-.548 4.82-5.248-.533" fill="#8f7b4f" fill-rule="evenodd"/><path d="M194.827 23.33l3.826.39.387-3.403-3.832-.39-.38 3.402M191.317 19.53l-3.826-.422-.353 3.397 3.828.394.352-3.37M142.465 27.392l-.273-3.288-4.115.348.28 3.255 4.108-.315M148.756 26.895l-.24-3.252-4.112.312.243 3.252 4.11-.312M145.085 31.033l-2.684.207.208 2.716 2.68-.244-.203-2.68M141.296 32.032l-1.288.1.097 1.29 1.287-.102-.096-1.288M147.59 31.53l-1.29.102.1 1.288 1.32-.1-.13-1.29M139.285 41.107l4.11-.315-.276-3.253-4.08.313.245 3.254M145.61 40.605l4.08-.314-.246-3.254-4.107.313.274 3.255M143.54 45.86l2.713-.208-.24-2.716-2.682.244.21 2.68M141.037 45.357l1.286-.097-.098-1.288-1.288.1.1 1.285M147.363 44.86l1.29-.1-.102-1.288-1.32.1.133 1.288M180.788 25.445l-4.113-.35-.28 3.29 4.114.315.278-3.255M170.105 27.888l4.114.31.24-3.25-4.11-.315-.245 3.255M173.576 33.713l2.68.244.205-2.718-2.68-.205-.204 2.678M177.57 32.032l-.1 1.288 1.286.1.1-1.288-1.285-.1M171.28 31.53l-.1 1.29 1.285.1.102-1.288-1.287-.1M175.468 40.792l4.112.315.24-3.255-4.073-.313-.28 3.252M169.177 40.29l4.074.315.28-3.254-4.113-.314-.24 3.255M172.61 45.652l2.717.207.205-2.68-2.68-.245-.243 2.717M177.828 45.357l.1-1.284-1.285-.1-.103 1.287 1.288.097M171.54 44.86l.093-1.288-1.322-.1-.094 1.287 1.323.1M198.097 54.78c.16-.764-.334-1.51-1.097-1.668-22.1-4.555-52.996-4.555-75.138 0-.764.157-1.256.903-1.097 1.668.156.764.9 1.255 1.667 1.097 21.804-4.484 52.233-4.485 73.997 0 .095.022.19.03.286.03.656 0 1.245-.46 1.38-1.127M192.5 82.988c1.147 0 2.175-.803 2.416-1.97.273-1.333-.585-2.638-1.92-2.914-22.252-4.59-44.837-4.59-67.126 0-1.335.276-2.193 1.58-1.92 2.915.276 1.333 1.58 2.193 2.915 1.917 21.628-4.456 43.543-4.456 65.136 0 .17.034.337.05.5.05M122.146 58.753l.717 3.43c1.858-.39 3.813-.744 5.81-1.056l-.54-3.462c-2.058.32-4.073.687-5.987 1.088M132.806 56.976l.42 3.48c2.175-.264 4.713-.563 7.27-.785l-.304-3.49c-2.61.23-5.18.532-7.386.796" fill="#8f7b4f" fill-rule="evenodd"/><path d="M145.33 55.787l.254 3.494c2.12-.153 4.492-.265 7.467-.353l-.102-3.502c-3.025.09-5.445.204-7.617.362M157.84 55.32l.04 3.503c3.803-.04 7.677.033 11.516.212l.163-3.5c-3.904-.182-7.847-.254-11.72-.215M174.352 59.315c3.42.254 6.76.578 9.928.96l.42-3.478c-3.22-.39-6.615-.717-10.088-.976l-.26 3.495M196.716 58.753c-2.175-.456-4.66-.894-7.603-1.344l-.525 3.465c2.875.437 5.297.864 7.41 1.308l.718-3.43M126.297 68.492l-.505-3.468c-.762.113-1.513.263-2.238.41l.692 3.433c.71-.143 1.384-.28 2.05-.375M128.81 68.017c2.294-.397 4.713-.756 7.394-1.096l-.44-3.473c-2.735.346-5.205.714-7.55 1.12l.596 3.45M139.877 66.5c2.668-.273 5.087-.472 7.394-.605l-.2-3.498c-2.36.136-4.83.34-7.55.618l.357 3.485M151.355 65.683c3.54-.15 6.96-.21 10.172-.178l.034-3.502c-3.267-.034-6.752.028-10.353.18l.148 3.5M166.1 65.615c3.412.102 6.837.314 10.183.633l.33-3.488c-3.42-.324-6.922-.54-10.41-.648l-.104 3.503M180.46 66.636c3.65.436 6.82.9 9.69 1.413l.62-3.45c-2.938-.525-6.174-.997-9.895-1.443l-.415 3.48M194.388 65.215c-.295-.08-.58-.156-.817-.207l-.713 3.43c.176.038.387.095.604.155.423.116.86.235 1.267.292l.48-3.47c-.183-.026-.536-.122-.82-.2M124.596 71.804l.753 3.423c1.816-.4 3.73-.74 5.584-1.07l.353-.064-.615-3.45-.353.064c-1.887.336-3.84.684-5.724 1.097M135 73.533c2.363-.313 4.807-.638 7.247-.85l-.303-3.49c-2.52.22-5.005.548-7.408.868l.463 3.473M145.96 72.36c2.52-.21 5.073-.352 7.587-.42l-.094-3.503c-2.58.07-5.2.216-7.785.434l.293 3.49M157.844 68.328l.032 3.503c3.59-.03 7.424.065 11.395.287l.195-3.498c-4.046-.227-7.953-.325-11.62-.292M173.8 72.4c3.493.296 6.712.653 9.84 1.097l.492-3.47c-3.195-.452-6.477-.818-10.04-1.118l-.293 3.49M187.345 74.06c2.023.344 4.062.727 6.234 1.17l.7-3.43c-2.21-.452-4.287-.844-6.347-1.193l-.588 3.453M158.88 97.783h1.108V83.485h-1.108v14.298M156.625 96.756l.11-13.157-1.107-.01-.11 13.157 1.107.01M153.23 83.703h-1.11V95.32h1.11V83.703M149.87 83.917h-1.11V94.03h1.11V83.918M146.473 84.343h-1.11v8.01h1.11v-8.01M143.112 84.7h-1.108v6.58h1.108V84.7M139.716 85.024h-1.108v4.47h1.108v-4.47M136.36 85.63h-1.11v2.29h1.11v-2.29M162.275 96.756l1.11-.01-.11-13.157-1.11.01.11 13.156M166.745 83.703h-1.11V95.32h1.11V83.703M170.1 83.917h-1.107V94.03h1.108V83.918M173.496 84.343h-1.108v8.01h1.108v-8.01M176.857 84.7h-1.108v6.58h1.107V84.7M180.253 85.024h-1.108v4.47h1.108v-4.47M183.615 85.63h-1.108v2.29h1.108v-2.29M209.763 319.54c-5.016 0-9.096 4.067-9.096 9.067 0 5.014 4.08 9.095 9.096 9.095.413 0 .818-.03 1.217-.086-7.63 19.553-33.276 40.228-51.547 51.015-18.29-10.798-43.965-31.5-51.568-51.07.402.056.816.088 1.236.088 5.004 0 9.045-4.038 9.045-9.04 0-4.97-4.04-9.013-9.044-9.013-5.005 0-9.007 4.042-9.007 9.012 0 .582.056 1.15.16 1.702 3.03 26.086 39.04 53.23 57.782 64.002l1.398.804 1.398-.804c18.555-10.663 54.03-37.372 57.682-63.217.227-.792.35-1.626.35-2.488 0-5-4.083-9.066-9.1-9.066" fill="#8f7b4f" fill-rule="evenodd"/><path d="M276.432 215.16c-2.35-16.052.09-30.893 6.872-41.788 5.948-9.556 14.848-14.98 22.133-13.497l5.08 1.032-12.064-30.394-1.622-.225c-11.617-1.597-17.29-1.663-30.347 1.163l-14.18-15.125c3.537-7.153 8.4-19.674 9.673-28.02l.235-1.534-30.005-25.85-1.43 3.725c-2.614 6.81-9.528 13.62-18.5 18.22-7.096 3.354-13.91 5.422-21.123 7.61-9.79 2.973-19.9 6.04-31.72 12.598-11.817-6.557-21.93-9.625-31.72-12.597-7.215-2.19-14.03-4.257-21.125-7.612-8.95-4.607-15.85-11.415-18.462-18.22l-1.43-3.723-30.004 25.85.235 1.535c1.27 8.335 6.133 20.862 9.67 28.02l-14.18 15.124c-13.055-2.825-18.73-2.76-30.35-1.162l-1.623.224-12.056 30.395 5.08-1.032c7.283-1.484 16.182 3.94 22.132 13.497 6.78 10.895 9.222 25.736 6.872 41.788-3.004 20.507-13.325 42.295-30.68 64.76l-1.405 1.817 1.507 1.736c23.97 27.618 48.007 43.76 65.954 44.29h.17c7.98-.243 13.302-2.163 15.835-5.708 1.37-1.59 2.202-3.658 2.202-5.915 0-5.004-4.076-9.047-9.082-9.047-5.003 0-9.04 4.043-9.04 9.047 0 2.245.813 4.3 2.16 5.888-.69.057-1.412.1-2.16.12-13.335-.433-31.416-11.315-50.027-29.75L240.125 80.56l-3.21-2.76-211.98 211.6c-2.43-2.505-4.867-5.136-7.298-7.886 17.104-22.594 27.324-44.634 30.386-65.54 2.542-17.366-.18-33.547-7.66-45.57-6.115-9.82-14.83-15.83-23.22-16.352l7.307-18.42c10.36-1.353 15.523-1.217 28.306 1.64l1.563.35 19.09-20.363-.942-1.776c-3.632-6.812-8.2-18.663-9.73-26.512l21.8-18.784c3.787 6.85 10.71 13.16 19.526 17.69l.082.04c7.486 3.543 14.505 5.674 21.935 7.93 9.877 2.996 20.09 6.095 31.96 12.883l1.392.795 1.395-.794c11.872-6.787 22.08-9.886 31.956-12.885 7.43-2.253 14.446-4.384 21.933-7.928l.077-.037c8.842-4.524 15.778-10.835 19.57-17.692l21.802 18.784c-1.534 7.856-6.105 19.705-9.736 26.51l-.946 1.775 19.093 20.366 1.564-.35c5.68-1.27 9.86-2.002 13.653-2.305L99.24 316.318l2.988 2.978 183.648-184.46c2.61.095 5.34.372 8.57.796l7.313 18.42c-8.39.523-17.107 6.532-23.22 16.353-7.483 12.022-10.204 28.203-7.66 45.568 3.06 20.907 13.28 42.947 30.384 65.54-22.084 24.98-44.513 40.122-60.292 40.636-.75-.023-1.47-.065-2.16-.122 1.345-1.588 2.16-3.643 2.16-5.888 0-5.004-4.043-9.047-9.048-9.047-5.003 0-9.075 4.043-9.075 9.047 0 2.267.837 4.34 2.213 5.932 2.538 3.535 7.854 5.448 15.824 5.69l.082.002h.083c17.947-.53 41.988-16.673 65.955-44.29l1.507-1.737-1.406-1.818c-17.353-22.465-27.674-44.253-30.678-64.76" fill="#8f7b4f" fill-rule="evenodd"/><path d="M119.965 146.33c0-8.3-6.764-15.05-15.08-15.05-8.28 0-15.018 6.75-15.018 15.05s6.737 15.05 15.018 15.05c8.316 0 15.08-6.75 15.08-15.05M95.613 121.095l-6.51-19.235-1.048.356 6.51 19.233 1.048-.355M99.715 100.045l-1.1.124 2.214 19.413 1.1-.126-2.215-19.412M108.905 101.06l-1.644 18.48 1.105.1 1.644-18.48-1.105-.1M84.135 117.71l5.116 6.757.882-.67-5.112-6.757-.885.67M77.344 125.637l6.33 4.036.595-.934-6.33-4.037-.596.934M120.79 105.727l-1.07-.298-4.467 16.017 1.068.298 4.47-16.018M130.622 111.303L120.29 123.78l.854.705 10.332-12.477-.854-.705M124.843 127.77l.775.79 13.66-13.37-.778-.79-13.657 13.37M147.443 122.683l-.547-.964-18.944 10.723.544.964 18.947-10.724M170.956 126.135l-40.32 12.548.33 1.057 40.32-12.547-.33-1.058M154.176 146.67h-22.342v1.107h22.342v-1.108M143.808 156.673l-12.65-4.29-.356 1.052 12.65 4.29.356-1.052M137.145 164.95l-8.187-6.435-.684.872 8.186 6.434.685-.87M132.037 171.955l-7.507-7.148-.765.802 7.508 7.147.764-.802M123.545 183.705l-6.042-13.264-1.01.463 6.043 13.26 1.01-.458M111.623 188.792l1.1-.135-1.927-15.764-1.1.135 1.927 15.764M100.78 191.295l3.323-17.84-1.09-.203-3.32 17.84 1.088.203M96.8 172.18l-1.07-.293L82.58 219.5l1.07.295 13.15-47.614M89.24 168.412l-.963-.552-19.302 33.568.96.553 19.304-33.568M84.62 164.05l-.802-.765-22.664 23.77.804.766 22.663-23.77M81.52 159.18l-.54-.965-23.772 13.26.54.968L81.52 159.18M56.953 158.91l21.766-6.08-.3-1.065-21.764 6.076.297 1.07M62.91 143.667l15.26.178.014-1.108-15.262-.177-.013 1.107M70.62 133.443l9.045 3.43.393-1.034-9.047-3.433-.39 1.036M233.81 282.13c5.93-1.623 11.006-3.183 11.006-17.943 0-3.414-.644-6.078-1.913-7.916-1.494-2.165-3.91-3.27-7.186-3.29-6.037 0-9.1 3.77-9.1 11.207 0 7.435 3.035 11.208 9.02 11.208l.08-.003c1.216 0 2.41-.184 3.45-.532l.057-.02.013.06c.362 1.78-4.45 6.327-5.428 7.23m1.687-9.418h-.066c-3.617 0-5.45-2.89-5.45-8.595 0-2.628.39-4.684 1.164-6.11.893-1.65 2.313-2.484 4.22-2.484h.067c2.006.016 3.418.828 4.315 2.485.767 1.413 1.138 3.412 1.138 6.11 0 5.782-1.762 8.594-5.386 8.594M177.88 265.403c0-1.176-.965-2.11-2.112-2.11-1.176 0-2.11.934-2.11 2.11 0 1.148.934 2.11 2.11 2.11 1.147 0 2.11-.962 2.11-2.11M192.553 276.573V253.86l-6.528 7.263 3.56-.624v16.073h2.968M260.115 276.573V253.86l-6.528 7.264 3.526-.625v16.073h3.002M215.984 260.127c-.376-.27-.563-.474-.588-.646-.02-.144.064-.325.265-.588 1.384-1.457 2.145-3.345 2.145-5.32 0-4.257-3.464-7.72-7.72-7.72-4.236 0-7.68 3.463-7.68 7.72 0 1.955.746 3.844 2.088 5.3.228.293.316.48.295.62-.027.17-.22.375-.608.64-2.47 1.89-3.885 4.764-3.885 7.884 0 5.437 4.44 9.864 9.9 9.864 5.36 0 9.72-4.427 9.72-9.864 0-3.13-1.43-6.003-3.93-7.89m-5.825-11.29c2.57 0 4.663 2.093 4.663 4.667 0 2.57-2.092 4.66-4.663 4.66-2.575 0-4.668-2.09-4.668-4.66 0-2.574 2.093-4.668 4.668-4.668m0 25.917c-3.74 0-6.78-3.02-6.78-6.736 0-3.736 3.04-6.773 6.78-6.773 3.735 0 6.773 3.037 6.773 6.773 0 3.715-3.038 6.736-6.773 6.736M149.853 241.527c0 1.872 1.522 3.394 3.394 3.394 1.874 0 3.4-1.52 3.4-3.393 0-1.855-1.526-3.364-3.4-3.364-1.872 0-3.394 1.51-3.394 3.364M181.057 210.104c0 1.872 1.526 3.395 3.4 3.395 1.87 0 3.392-1.524 3.392-3.396 0-1.873-1.522-3.4-3.393-3.4-1.874 0-3.4 1.527-3.4 3.4M241.684 155.837c0-1.87-1.52-3.392-3.393-3.392-1.85 0-3.358 1.522-3.358 3.392 0 1.906 1.475 3.4 3.36 3.4 1.9 0 3.392-1.494 3.392-3.4M145.19 192.08l-4.994 5.07c.72.403 1.368.958 2.192 1.69l.083.077 25.45 25.88.063.08c1.01 1.308 1.672 2.29 2.16 3.43l5.786-5.743c-.955-.463-1.886-1.065-2.582-1.78l-26.115-26.115c-.597-.6-1.41-1.514-2.042-2.59M187.71 170.907c-1.8 0-3.47-.668-4.83-1.932l-.06-.06-5.005-5.15c-.688-.717-1.45-1.62-2.038-2.617l-4.978 5.097c.725.396 1.368.946 2.187 1.672l.08.078 25.453 25.88.06.08c1.02 1.318 1.684 2.31 2.172 3.46l5.79-5.744c-.947-.465-1.87-1.057-2.553-1.734l-9.478-8.835c-2.304-2.513-2.928-5.368-1.755-8.036 1.683-3.82 6.924-6.49 12.747-6.49 6.875 0 12.84 3.43 16.657 9.493l7.607-7.444c-2.32-.736-4.734-1.9-7.244-3.11-4.554-2.196-9.26-4.464-13.87-4.464-1.873 0-3.58.37-5.22 1.137l-2.79 1.302.414-3.05c.984-7.237-.04-14-3.32-21.65l-5.437 5.58c5.63 5.23 7.684 11.87 5.5 18.05-1.767 4.997-5.916 8.487-10.09 8.487M110.33 278.905c.774 2.856 1.28 4.98 1.166 8.438l6.232-6.014c-2.882-1.918-5.416-5.144-5.692-9.122l-.054-.773 17.148-16.842 1.03.432c2.773 1.164 5.127 2.642 7.304 5.724l6.63-6.52c-1.08-.31-2.214-.755-3.49-1.423l-37.325-18.402-.966.947-.005-.004-3.1 3.05-.424.415-.67.662v-.003l-3.7 3.628c.992.676 2.054 1.71 2.89 3.608l.02.048 12.976 32.052zM99.69 243.312l2.694-2.652 23.518 12.064-16.026 15.385-10.186-24.798M272.717 265.403c0-1.176-.964-2.11-2.11-2.11-1.176 0-2.11.934-2.11 2.11 0 1.148.934 2.11 2.11 2.11 1.146 0 2.11-.962 2.11-2.11" fill="#8f7b4f" fill-rule="evenodd"/><path d="M98.987 310.776L267.97 141.048l-.94.207-1.563.35-2.276.508-1.595-1.7-19.094-20.366-2-2.135 1.377-2.583.946-1.773c3.006-5.636 6.988-15.564 8.825-23.086l-8.415-7.25-.298.3-209.21 208.835c8.03 7.63 15.84 13.73 23.26 18.155 6.174 3.683 11.94 6.08 16.935 7.06-.05-.474-.077-.953-.077-1.433 0-3.512 1.364-6.81 3.84-9.288 2.475-2.48 5.775-3.845 9.286-3.845 5.345 0 9.958 3.195 12.017 7.77m54.257-62.495c-3.724 0-6.753-3.03-6.753-6.755 0-3.708 3.03-6.724 6.754-6.724 3.728 0 6.76 3.017 6.76 6.725 0 3.726-3.032 6.755-6.76 6.755m31.21-31.42c-3.727 0-6.76-3.032-6.76-6.756 0-3.727 3.033-6.76 6.76-6.76 3.723 0 6.754 3.033 6.754 6.76 0 3.724-3.03 6.755-6.755 6.755m53.835-67.777c3.724 0 6.755 3.03 6.755 6.754 0 3.726-3.03 6.76-6.755 6.76-3.705 0-6.72-3.034-6.72-6.76 0-3.724 3.015-6.754 6.72-6.754m-60.325 5.017l.16 3.887c.034.808.84 2.128 2.106 3.444l4.965 5.11c.73.668 1.574 1.005 2.51 1.005 2.69 0 5.666-2.684 6.923-6.245.893-2.527 2.115-9.1-5.833-15.52l-1.435-1.16 11.375-11.67 1.034 2.185c3.903 8.23 5.454 15.456 4.9 23.052 1.28-.33 2.613-.5 3.98-.5 5.378 0 10.665 2.55 15.33 4.797 3.42 1.65 6.65 3.205 9.35 3.515l3.507.4-15.52 15.19-1.038-2.037c-4.424-8.682-11.81-9.62-14.78-9.62-4.46 0-8.527 1.886-9.668 4.484-.616 1.398-.24 2.867 1.113 4.368l9.395 8.75c.817.82 2.52 1.588 3.596 1.793l3.132.597-14.177 14.068-.607-3.072c-.428-2.15-.882-2.983-2.303-4.835l-25.27-25.693c-1.47-1.307-1.73-1.48-3.25-1.583l-3.62-.253zm-30.483 30.86l.08 3.983c.02.79.84 2.137 2.05 3.353l26.127 26.127c.822.844 2.502 1.582 3.596 1.792l3.128.598-14.153 14.047-.622-3.047c-.434-2.134-.888-2.962-2.304-4.806l-25.27-25.694c-1.437-1.278-1.713-1.512-3.246-1.617l-3.645-.252zm-44.855 45.376l39.496 19.475c2.17 1.133 3.757 1.49 5.628 1.698l3.505.396-14.47 14.22-1.082-1.887c-1.79-3.124-3.555-4.566-5.832-5.66l-14.39 14.132c.566 3.17 3.275 5.66 5.714 6.697l2.338.99-16.407 15.83.63-4.77c.778-5.865.344-7.926-.643-11.576l-12.892-31.84c-.76-1.716-1.62-2.173-2.71-2.752-.236-.125-.47-.25-.7-.384l-1.9-1.108 13.717-13.46" fill="#f2db1d"/><path d="M120.193 253.557l-16.053-8.234 6.966 16.96z" fill="#f2db1d"/></svg>